<?xml version="1.0" encoding="utf-8"?>
<!-- Generator: Adobe Illustrator 16.0.0, SVG Export Plug-In . SVG Version: 6.00 Build 0)  -->
<!DOCTYPE svg PUBLIC "-//W3C//DTD SVG 1.1 Tiny//EN" "http://www.w3.org/Graphics/SVG/1.1/DTD/svg11-tiny.dtd">
<svg version="1.1" baseProfile="tiny" id="Layer_1" xmlns="http://www.w3.org/2000/svg" xmlns:xlink="http://www.w3.org/1999/xlink"
	 x="0px" y="0px" width="24px" height="24px" viewBox="0 0 24 24" xml:space="preserve">
<path d="M22.53,4.768c-0.672-0.67-1.783-0.847-2.364-0.893c-0.065-0.587-0.277-1.747-0.955-2.423
	c-1.063-1.066-2.904-1.087-3.94-0.046c-1.276,1.276-1.416,4.118-1.431,4.825L6.206,13.87c-0.689,0.025-3.492,0.206-4.78,1.492
	c-1.064,1.065-1.048,2.814,0.036,3.9c0.657,0.655,1.702,0.82,2.322,0.859c0.073,0.591,0.301,1.763,0.974,2.436
	c0.536,0.536,1.246,0.831,1.998,0.831c0.734,0,1.422-0.283,1.937-0.797c1.252-1.254,1.422-4.036,1.445-4.739l7.69-7.691
	c0.693-0.026,3.474-0.208,4.75-1.483C23.643,7.613,23.621,5.859,22.53,4.768z M22.012,8.112c-1.202,1.201-4.316,1.252-4.343,1.252
	l-0.183,0.007l-8.021,8.021l-0.122,0.133l-0.002,0.164c0,0.031-0.038,3.158-1.214,4.336c-0.739,0.738-2.046,0.724-2.803-0.034
	c-0.57-0.57-0.753-1.832-0.782-2.328l-0.127-0.331H4.087c-0.145,0-1.438-0.018-2.06-0.637c-0.772-0.773-0.788-2.015-0.035-2.769
	c1.211-1.21,4.342-1.261,4.369-1.262l0.182-0.007l7.952-7.953l0.144-0.137V6.386c-0.001-0.032,0-3.218,1.198-4.416
	c0.359-0.36,0.843-0.559,1.361-0.559c0.544,0,1.058,0.215,1.447,0.605c0.573,0.572,0.735,1.814,0.749,2.232l0.016,0.41h0.4
	c0.512,0,1.619,0.141,2.154,0.675C22.744,6.113,22.765,7.359,22.012,8.112z"/>
</svg>
