<?xml version="1.0" ?><!DOCTYPE svg  PUBLIC '-//W3C//DTD SVG 1.1//EN'  'http://www.w3.org/Graphics/SVG/1.1/DTD/svg11.dtd'><svg enable-background="new 0 0 128 128" id="Слой_1" version="1.1" viewBox="0 0 128 128" xml:space="preserve" xmlns="http://www.w3.org/2000/svg" xmlns:xlink="http://www.w3.org/1999/xlink"><g><g><g><path d="M69.9,124H34.8c-8.3,0-15-6.7-15-15V19c0-8.3,6.7-15,15-15h35.1c8.3,0,15,6.7,15,15v90     C84.9,117.3,78.1,124,69.9,124z" fill="#D6D6D6"/></g><circle cx="52.3" cy="114.9" fill="#593055" opacity="0.2" r="5.1"/><g><path d="M52.3,121.2c-3.5,0-6.3-2.8-6.3-6.3s2.8-6.3,6.3-6.3s6.3,2.8,6.3,6.3S55.8,121.2,52.3,121.2z M52.3,111.1     c-2.1,0-3.8,1.7-3.8,3.8s1.7,3.8,3.8,3.8c2.1,0,3.8-1.7,3.8-3.8S54.4,111.1,52.3,111.1z" fill="#62355C"/></g><g><path d="M69.9,125.2H34.8c-9,0-16.2-7.3-16.2-16.2V19c0-9,7.3-16.2,16.2-16.2h35.1c9,0,16.2,7.3,16.2,16.2v90     C86.1,118,78.8,125.2,69.9,125.2z M34.8,5.2C27.2,5.2,21,11.4,21,19v90c0,7.6,6.2,13.8,13.8,13.8h35.1c7.6,0,13.8-6.2,13.8-13.8     V19c0-7.6-6.2-13.8-13.8-13.8H34.8z" fill="#62355C"/></g><g><path d="M27.7,22.8h49.2c1.6,0,2.9,1.3,2.9,2.9v76.6c0,1.6-1.3,2.9-2.9,2.9H27.7c-1.6,0-2.9-1.3-2.9-2.9V25.7     C24.9,24.1,26.2,22.8,27.7,22.8z" fill="#FFFFFF"/></g><path d="M64.3,40.1v23.5c0,1.3,1.1,2.4,2.4,2.4h18.2V19c0-1.8-0.3-3.5-0.9-5.1    C72.6,17,64.3,27.7,64.3,40.1z" fill="#593055" opacity="0.2"/><g><path d="M71.3,72.2H33.4c-0.6,0-1.1,0.5-1.1,1.1v3.2c0,0.6,0.5,1.1,1.1,1.1l1.6,0.1l2.3,17     c0.2,1.3,1.3,2.3,2.6,2.3h24.8c1.3,0,2.4-1,2.6-2.3l2.3-17l1.6-0.1c0.6,0,1.1-0.5,1.1-1.1v-3.2C72.3,72.7,71.8,72.2,71.3,72.2z" fill="#65C5B4"/></g><g><path d="M73.6,73.4C73.6,73.4,73.6,73.4,73.6,73.4L73.6,73.4c0-1.4-1-2.4-2.3-2.4h-0.1H33.5h-0.1     c-1.3,0-2.3,1-2.3,2.3v0.1c0,0,0,0,0,0v3c0,0,0,0,0,0v0.1c0,1.3,1,2.3,2.2,2.3c0,0,0,0,0,0l0.6,0l2.2,16c0.2,1.9,1.9,3.4,3.9,3.4     h24.8c2,0,3.6-1.5,3.8-3.4l2.2-16l0.5,0c1.3,0,2.3-1,2.3-2.3v-0.1c0,0,0,0,0,0V73.4z M71.1,73.5v2.8H33.6v-2.8H71.1z M66.1,94.5     c-0.1,0.7-0.7,1.2-1.4,1.2H39.9c-0.7,0-1.3-0.5-1.4-1.2l-2.1-15.7h31.9L66.1,94.5z" fill="#62355C"/><g><path d="M42.3,75.5c-0.2,0-0.4,0-0.6-0.1c-0.6-0.3-0.9-1.1-0.6-1.7l6-11.9c0.3-0.6,1.1-0.9,1.7-0.6      c0.6,0.3,0.9,1.1,0.6,1.7l-6,11.9C43.2,75.3,42.8,75.5,42.3,75.5z" fill="#62355C"/></g><g><path d="M62.3,75.5c-0.5,0-0.9-0.3-1.1-0.7l-6-11.9c-0.3-0.6-0.1-1.4,0.6-1.7c0.6-0.3,1.4-0.1,1.7,0.6l6,11.9      c0.3,0.6,0.1,1.4-0.6,1.7C62.7,75.5,62.5,75.5,62.3,75.5z" fill="#62355C"/></g></g><g><path d="M76.9,106.5H27.7c-2.3,0-4.1-1.9-4.1-4.1V25.7c0-2.3,1.9-4.1,4.1-4.1h49.2c2.3,0,4.1,1.9,4.1,4.1v76.6     C81,104.6,79.2,106.5,76.9,106.5z M27.7,24.1c-0.9,0-1.6,0.7-1.6,1.6v76.6c0,0.9,0.7,1.6,1.6,1.6h49.2c0.9,0,1.6-0.7,1.6-1.6     V25.7c0-0.9-0.7-1.6-1.6-1.6H27.7z" fill="#62355C"/></g><g><path d="     M55,99.9" fill="none" stroke="#404243" stroke-linecap="round" stroke-linejoin="round" stroke-miterlimit="10" stroke-width="2.5"/></g><g><circle cx="43.9" cy="13.4" fill="#62355C" r="1.5"/></g><g><path d="M61.5,14.7H49c-0.7,0-1.2-0.6-1.2-1.2s0.6-1.2,1.2-1.2h12.6c0.7,0,1.2,0.6,1.2,1.2S62.2,14.7,61.5,14.7z" fill="#62355C"/></g><g><path d="     M55,81.4" fill="none" stroke="#404243" stroke-linecap="round" stroke-linejoin="round" stroke-miterlimit="10" stroke-width="2.5"/></g></g><g><g><g><path d="M108.2,30.9C108,45.4,95.7,56.9,81.1,56.9H57.6c-1.3,0-2.4-1.1-2.4-2.4V31.1C55.3,16.5,66.8,4.2,81.3,4      C96.3,3.8,108.4,15.9,108.2,30.9z" fill="#EC7BB0"/></g></g><g><g><path d="M77.9,39.1c0.7,0,1,0.5,1,1.2c0,0.7-0.4,1.2-1,1.2H65.3c-1,0-1.7-0.6-1.7-1.7c0-1,0.6-2.3,1-3.1      c1-1.9,2.7-3.6,5.2-5.3l1.9-1.2c2.7-1.8,3.9-2.8,3.9-4.9c0-2-1.7-3.3-4.3-3.3c-3.2,0-4.3,1.9-4.8,3.8c-0.2,0.6-0.7,0.9-1.2,0.9      c-0.1,0-0.3,0-0.4,0c-0.6-0.1-1-0.5-1-1.1c0-0.1,0-0.3,0.1-0.4c0.3-1.2,0.9-2.4,1.8-3.4c1.2-1.2,3-2,5.7-2      c4.2,0,6.9,2.2,6.9,5.7c0,3.4-2.1,4.9-4.6,6.5L72,32.8c-3.1,1.9-4.8,3.8-5.5,6.2H77.9z" fill="#FFFFFF"/><path d="M77.9,42.7H65.3c-1.8,0-2.9-1.1-2.9-2.9c0-1.5,0.9-3.2,1.2-3.8c1.1-2.1,2.9-4,5.7-5.7l1.9-1.2      c2.7-1.7,3.3-2.5,3.3-3.9c0-1.9-2.3-2.1-3.1-2.1c-2.3,0-3.1,1.1-3.5,2.8c-0.3,1.1-1.2,1.8-2.4,1.8c-0.2,0-0.4,0-0.7-0.1      c-1.3-0.3-2.1-1.2-2.1-2.4c0-0.3,0-0.5,0.1-0.7c0.4-1.6,1.1-3,2.2-4c1.6-1.6,3.8-2.4,6.6-2.4c4.9,0,8.1,2.7,8.1,6.9      c0,4.2-3,6.1-5.2,7.5l-1.8,1.1c-2.2,1.4-3.5,2.6-4.3,3.9h9.5c1.3,0,2.3,1,2.3,2.4C80.2,41.6,79.2,42.7,77.9,42.7z M65.8,37.2      c-0.5,1-0.9,2-0.9,2.5c0,0.1,0,0.2,0,0.2l0.3-1.3C65.4,38.2,65.6,37.7,65.8,37.2z M75,21.5c1.2,0.8,2,2.1,2,3.6      c0,2-0.9,3.2-2.2,4.4c1.5-1.1,2.4-2.3,2.4-4.3C77.2,23.6,76.4,22.3,75,21.5z M65.5,25.2C65.5,25.2,65.5,25.2,65.5,25.2      c0.2-0.7,0.6-2.2,1.9-3.3c-0.2,0.2-0.4,0.3-0.6,0.5c-0.7,0.7-1.2,1.7-1.5,2.8c0,0,0,0,0,0c0,0,0,0,0.1,0      C65.4,25.2,65.4,25.2,65.5,25.2z" fill="#FFFFFF"/></g><g><path d="M84.4,36.1c-0.9,0-1.5-0.5-1.5-1.5c0-0.9,0.3-1.4,0.9-2.2l8.4-11.5c0.7-0.9,1.1-1.4,2.3-1.4      c0.9,0,1.5,0.4,1.5,1.5v12.7h2.6c0.7,0,1,0.4,1,1.1c0,0.6-0.3,1.2-1,1.2H96v4.4c0,0.8-0.5,1.1-1.3,1.1c-0.7,0-1.2-0.3-1.2-1.1      v-4.4H84.4z M86.5,32.6c-0.3,0.4-0.7,0.8-1.1,1.2c0.6-0.1,1.3-0.1,1.7-0.1h6.4v-7.1c0-1.3,0.1-3,0.2-4.6c-0.6,1-1.3,2.1-2.1,3.3      L86.5,32.6z" fill="#FFFFFF"/><path d="M94.8,42.9c-1.5,0-2.5-0.9-2.5-2.4v-3.2h-7.8c-1.7,0-2.8-1.1-2.8-2.7c0-1.2,0.4-2,1.1-3l8.4-11.5      c0.7-1,1.5-1.9,3.3-1.9c1.7,0,2.8,1.1,2.8,2.8v11.5h1.3c1.4,0,2.3,0.9,2.3,2.4c0,1.4-1,2.4-2.3,2.4h-1.3v3.2      C97.3,41.9,96.3,42.9,94.8,42.9z M94.8,35.1v5.3c0,0,0,0,0,0l0-14.6c0,0.3,0,0.7,0,1V35.1z M88.1,32.6h4.2v-5.8c0,0,0,0,0-0.1      L88.1,32.6z M93.2,21.7l1.6,0.5v-1.1c0-0.2,0-0.2,0-0.3c0,0-0.1,0-0.3,0C93.9,20.8,93.8,20.9,93.2,21.7L93.2,21.7z" fill="#FFFFFF"/></g></g><g><g><path d="M81.1,58.2H57.6c-2,0-3.6-1.6-3.6-3.6V31.1C54,15.7,66.3,3,81.3,2.8l0.4,0c7.5,0,14.5,2.9,19.8,8.3      c5.3,5.3,8.1,12.4,8,19.9C109.2,45.9,96.5,58.2,81.1,58.2z M81.7,5.2l-0.4,0C67.7,5.5,56.5,17,56.5,31.1v23.5      c0,0.6,0.5,1.1,1.1,1.1h23.5c14,0,25.6-11.1,25.8-24.8c0.1-6.8-2.5-13.2-7.2-18.1C94.9,7.9,88.5,5.2,81.7,5.2z" fill="#62355C"/></g></g></g></g></svg>