<?xml version="1.0" ?><!DOCTYPE svg  PUBLIC '-//W3C//DTD SVG 1.1//EN'  'http://www.w3.org/Graphics/SVG/1.1/DTD/svg11.dtd'><svg enable-background="new 0 0 128 128" id="Слой_1" version="1.1" viewBox="0 0 128 128" xml:space="preserve" xmlns="http://www.w3.org/2000/svg" xmlns:xlink="http://www.w3.org/1999/xlink"><g><circle cx="64" cy="64" fill="#EFEFEF" r="62"/><g><g><g><g><path d="M4.4,69.8c-0.9,1.6-0.4,3.6,1.2,4.5l43.5,25.1c0.3,0.2,0.7,0.3,1.1,0.4l28.3,5.1       c1.4,0.2,2.7-0.4,3.4-1.6l11.5-19.8c0.4-0.7,0.5-1.6,0.3-2.4l-9-36.5l13.8-23.9l22.8-4.9c1.8-0.4,2.9-2.1,2.5-3.9       c-0.4-1.8-2.1-2.9-3.9-2.5l-24.2,5.2c-0.9,0.2-1.7,0.8-2.2,1.6l-43.9,76L8.9,68.6C7.4,67.7,5.3,68.2,4.4,69.8z M77.4,98       l-21.3-3.8l23.9-41.4l7,28.6L77.4,98z" fill="#F1EBAC"/></g><g><path d="M103.9,19.5l17.5-3.8c1.8-0.4,2.9-2.1,2.5-3.9c-0.4-1.8-2.1-2.9-3.9-2.5l-17.6,3.8L103.9,19.5z" fill="#4C9190"/></g><g><path d="M103.9,20.8c-0.6,0-1.1-0.4-1.2-1l-1.5-6.4c-0.2-0.7,0.3-1.3,0.9-1.5c0.7-0.2,1.3,0.3,1.5,0.9l1.5,6.4       c0.2,0.7-0.3,1.3-0.9,1.5C104.1,20.8,104,20.8,103.9,20.8z" fill="#62355C"/></g><g><path d="M79.1,106.2c-0.3,0-0.5,0-0.8-0.1L50,101c-0.5-0.1-1-0.3-1.5-0.5l-43.3-25c-2.2-1.3-3-3.9-1.9-6.1       c0.8-1.5,2.3-2.5,4.1-2.5c0.8,0,1.6,0.2,2.3,0.6l38.5,22.2c0.6,0.4,1.5,0.1,1.9-0.5l42.6-73.7c0.6-1.1,1.7-1.9,3-2.2l24.2-5.2       c0.3-0.1,0.6-0.1,1-0.1c2.2,0,4.1,1.6,4.5,3.8c0.4,2.4-1.2,4.7-3.7,5.2l-22.1,4.8L86.1,44.7l8.8,36c0.3,1.1,0.1,2.3-0.5,3.4       L83,103.9C82.2,105.3,80.7,106.2,79.1,106.2z M7.3,69.4c-0.8,0-1.5,0.4-1.8,1.1c-0.5,0.9-0.1,2.2,1,2.8l43.3,25       c0.2,0.1,0.4,0.2,0.7,0.2l28.3,5.1c0.9,0.2,1.7-0.3,2.1-1l11.5-19.8c0.3-0.5,0.3-1,0.2-1.5l-9-36.5c-0.1-0.3,0-0.6,0.1-0.9       l13.8-23.9c0.2-0.3,0.5-0.5,0.8-0.6l22.6-4.9c1.1-0.2,1.9-1.3,1.8-2.4c-0.2-1.1-1.3-1.9-2.4-1.7L96,15.8       c-0.6,0.1-1.1,0.5-1.3,1L52.1,90.5c-0.7,1.2-2,1.9-3.4,1.9c-0.7,0-1.3-0.2-1.9-0.5L8.3,69.7C8,69.5,7.6,69.4,7.3,69.4z        M77.4,99.3c-0.1,0-0.1,0-0.2,0l-21.3-3.8c-0.4-0.1-0.7-0.3-0.9-0.7c-0.2-0.4-0.2-0.8,0.1-1.2L79,52.1c0.3-0.4,0.7-0.7,1.3-0.6       c0.5,0.1,0.9,0.4,1,0.9l7,28.6c0.1,0.3,0,0.6-0.1,0.9l-9.6,16.7C78.3,99,77.9,99.3,77.4,99.3z M58.1,93.3l18.7,3.4l8.9-15.5       l-6.1-25.1L58.1,93.3z" fill="#62355C"/></g><g><ellipse cx="82.4" cy="98.3" fill="#938993" rx="20.2" ry="20.4" transform="matrix(0.9852 -0.1715 0.1715 0.9852 -15.6409 15.5868)"/></g><path d="M102.3,94.8c-0.8-4.7-3.2-8.7-6.4-11.7c1.9,2.5,3.3,5.6,3.9,8.9      c1.9,11.1-5.4,21.7-16.4,23.6c-6.4,1.1-12.6-0.9-17-5c4.5,5.8,11.9,9.1,19.6,7.7C96.9,116.5,104.3,105.9,102.3,94.8z" fill="#593055" opacity="0.2"/><g><path d="M82.4,120c-10.5,0-19.4-7.6-21.2-18c-1-5.7,0.3-11.5,3.6-16.2c3.3-4.7,8.2-7.9,13.9-8.9       c1.2-0.2,2.5-0.3,3.7-0.3c10.5,0,19.4,7.6,21.2,18c1,5.7-0.3,11.5-3.6,16.2c-3.3,4.7-8.2,7.9-13.9,8.9       C84.9,119.9,83.6,120,82.4,120z M82.3,79.1c-1.1,0-2.2,0.1-3.2,0.3c-5,0.9-9.4,3.7-12.3,7.8c-2.9,4.2-4,9.3-3.2,14.3       c1.6,9.2,9.5,15.9,18.8,15.9c1.1,0,2.2-0.1,3.2-0.3c5-0.9,9.4-3.7,12.3-7.8c2.9-4.2,4-9.3,3.2-14.3       C99.5,85.8,91.6,79.1,82.3,79.1z" fill="#62355C"/></g><g opacity="0.2"><path d="M84.5,110.4c-6.6,1.1-12.9-3.3-14.1-10c-1.2-6.7,3.3-13,9.9-14.2s12.9,3.3,14.1,10       C95.5,102.9,91.1,109.2,84.5,110.4z" fill="#0F1216"/></g><g><path d="M82.4,112.6c-6.9,0-12.8-5-14-11.9c-0.7-3.8,0.2-7.6,2.4-10.7c2.2-3.1,5.4-5.2,9.2-5.9       c0.8-0.1,1.6-0.2,2.4-0.2c6.9,0,12.8,5,14,11.9c0.7,3.8-0.2,7.6-2.4,10.7c-2.2,3.1-5.4,5.2-9.2,5.9       C84,112.6,83.2,112.6,82.4,112.6z M82.3,86.5c-0.7,0-1.3,0.1-2,0.2c-3.1,0.5-5.8,2.3-7.6,4.8c-1.8,2.6-2.5,5.7-2,8.8       c1,5.7,5.9,9.8,11.6,9.8c0.7,0,1.3-0.1,2-0.2c3.1-0.5,5.8-2.3,7.6-4.8c1.8-2.6,2.5-5.7,2-8.8C92.9,90.6,88,86.5,82.3,86.5z" fill="#62355C"/></g><g><ellipse cx="78.6" cy="95.6" fill="#373637" rx="1.2" ry="1.2" transform="matrix(0.9852 -0.1715 0.1715 0.9852 -15.239 14.9034)"/></g><g><ellipse cx="79.7" cy="102.1" fill="#373637" rx="1.2" ry="1.2" transform="matrix(0.9852 -0.1715 0.1715 0.9852 -16.3282 15.1916)"/></g><g><ellipse cx="86.1" cy="101" fill="#373637" rx="1.2" ry="1.2" transform="matrix(0.9852 -0.1715 0.1715 0.9852 -16.0429 16.2702)"/></g><g><ellipse cx="85" cy="94.5" fill="#373637" rx="1.2" ry="1.2" transform="matrix(0.9852 -0.1715 0.1715 0.9852 -14.9537 15.982)"/></g><g><path d="M70,46.4c1.1,0.6,1.5,2.1,0.9,3.2L49.7,86.2c-0.6,1.1-2.1,1.5-3.2,0.9L9.9,65.9       c-1.1-0.6-1.5-2.1-0.9-3.2l21.1-36.6c0.6-1.1,2.1-1.5,3.2-0.9L70,46.4z" fill="#D6AB7F"/></g><path d="M70,46.4c1.1,0.6,1.5,2.1,0.9,3.2L49.7,86.2c-0.6,1.1-2.1,1.5-3.2,0.9L9.9,65.9      c-1.1-0.6-1.5-2.1-0.9-3.2l21.1-36.6c0.6-1.1,2.1-1.5,3.2-0.9L70,46.4z" fill="#593055" opacity="0.2"/><g><path d="M47.7,88.6c-0.6,0-1.3-0.2-1.8-0.5L9.3,67C7.6,66,7,63.8,8,62l21.1-36.6c0.6-1.1,1.8-1.8,3.1-1.8       c0.6,0,1.3,0.2,1.8,0.5l36.6,21.1c0.8,0.5,1.4,1.3,1.7,2.2c0.2,0.9,0.1,1.9-0.4,2.7L50.8,86.8C50.2,87.9,49,88.6,47.7,88.6z        M32.3,26.1c-0.4,0-0.8,0.2-1,0.5L10.2,63.3c-0.3,0.5-0.1,1.2,0.4,1.5l36.6,21.1c0.5,0.3,1.2,0.1,1.5-0.4l21.1-36.6       c0.1-0.3,0.2-0.5,0.1-0.8c-0.1-0.3-0.3-0.5-0.5-0.7L32.8,26.3C32.6,26.2,32.5,26.1,32.3,26.1z" fill="#62355C"/></g><g><polygon fill="#D6AB7F" points="14.2,68.4 68.4,53.8 65.8,43.9 11.6,58.5      "/></g><g><path d="M14.2,69.7c-0.2,0-0.4-0.1-0.6-0.2c-0.3-0.2-0.5-0.4-0.6-0.8l-2.7-9.9c-0.2-0.7,0.2-1.4,0.9-1.5       l54.2-14.6c0.3-0.1,0.7,0,1,0.1c0.3,0.2,0.5,0.4,0.6,0.8l2.7,9.9c0.2,0.7-0.2,1.4-0.9,1.5L14.6,69.7       C14.5,69.7,14.3,69.7,14.2,69.7z M13.1,59.4l2,7.5l51.8-14l-2-7.5L13.1,59.4z" fill="#62355C"/></g></g><path d="M70,46.4L33.4,25.2c-1.1-0.6-2.6-0.3-3.2,0.9l-4.7,8.2c0,0,0,0,0.1,0l40.5,23.4     c0,0,0.1,0,0.1,0l4.7-8.2C71.5,48.4,71.1,47,70,46.4z" fill="#593055" opacity="0.2"/><g><path d="M68.3,53.9L27.7,30.5c-1.4-0.8-1.9-2.6-1.1-4l2.2-3.8c0.8-1.4,2.6-1.9,4-1.1L73.4,45      c1.4,0.8,1.9,2.6,1.1,4l-2.2,3.8C71.5,54.2,69.7,54.7,68.3,53.9z" fill="#D6AB7F"/></g><g><path d="M47.1,90.6L6.6,67.2c-1.4-0.8-1.9-2.6-1.1-4l2.2-3.8c0.8-1.4,2.6-1.9,4-1.1l40.5,23.4      c1.4,0.8,1.9,2.6,1.1,4l-2.2,3.8C50.3,90.9,48.5,91.4,47.1,90.6z" fill="#D6AB7F"/></g><g><path d="M69.7,55.5c-0.7,0-1.5-0.2-2.1-0.6L27.1,31.6c-1-0.6-1.7-1.5-2-2.5c-0.3-1.1-0.1-2.2,0.4-3.2l2.2-3.8      c0.7-1.3,2.1-2.1,3.6-2.1c0.7,0,1.5,0.2,2.1,0.6L74,43.9c2,1.2,2.7,3.7,1.5,5.7l-2.2,3.8C72.6,54.7,71.2,55.5,69.7,55.5z       M31.4,22.5c-0.6,0-1.2,0.3-1.5,0.8l-2.2,3.8c-0.2,0.4-0.3,0.8-0.2,1.3c0.1,0.4,0.4,0.8,0.8,1l40.5,23.4      c0.8,0.5,1.9,0.2,2.3-0.6l2.2-3.8c0.5-0.8,0.2-1.8-0.6-2.3L32.3,22.7C32,22.5,31.7,22.5,31.4,22.5z" fill="#62355C"/></g><g><path d="M48.6,92.2c-0.7,0-1.5-0.2-2.1-0.6L6,68.3c-2-1.2-2.7-3.7-1.5-5.7l2.2-3.8c0.7-1.3,2.1-2.1,3.6-2.1      c0.7,0,1.5,0.2,2.1,0.6l40.5,23.4c2,1.2,2.7,3.7,1.5,5.7l-2.2,3.8C51.4,91.4,50.1,92.2,48.6,92.2z M10.2,59.1      c-0.6,0-1.2,0.3-1.5,0.8l-2.2,3.8c-0.5,0.8-0.2,1.8,0.6,2.3l40.5,23.4c0.8,0.5,1.9,0.2,2.3-0.6l2.2-3.8c0.5-0.8,0.2-1.8-0.6-2.3      L11.1,59.4C10.8,59.2,10.5,59.1,10.2,59.1z" fill="#62355C"/></g></g></g></g></svg>