<?xml version="1.0" ?><!DOCTYPE svg  PUBLIC '-//W3C//DTD SVG 1.1//EN'  'http://www.w3.org/Graphics/SVG/1.1/DTD/svg11.dtd'><svg enable-background="new 0 0 128 128" id="Слой_1" version="1.1" viewBox="0 0 128 128" xml:space="preserve" xmlns="http://www.w3.org/2000/svg" xmlns:xlink="http://www.w3.org/1999/xlink"><g><circle cx="64" cy="63.6" fill="#EFEFEF" r="62"/><g><path d="M81.5,30.6H46.4c-8.3,0-15,6.7-15,15v70.7c9.5,5.9,20.6,9.3,32.6,9.3c11.9,0,23-3.4,32.5-9.2V45.6    C96.5,37.3,89.7,30.6,81.5,30.6z" fill="#D6D6D6"/><path d="M81.5,29.3H46.4c-9,0-16.2,7.3-16.2,16.3v69.9c0.8,0.5,1.7,1.1,2.5,1.5V45.6c0-7.6,6.2-13.8,13.8-13.8    h35.1c7.6,0,13.8,6.2,13.8,13.8v71.6c0.8-0.5,1.7-1,2.5-1.5v-70C97.7,36.6,90.4,29.3,81.5,29.3z" fill="#62355C"/><path d="M88.5,49.4H39.4c-1.6,0-2.9,1.3-2.9,2.9v66.8c8.3,4.1,17.6,6.5,27.5,6.5c9.8,0,19.1-2.3,27.4-6.4V52.3    C91.4,50.7,90.1,49.4,88.5,49.4z" fill="#FFFFFF"/><g><path d="M82.9,97.3H45c-0.6,0-1.1,0.5-1.1,1.1v3.2c0,0.6,0.5,1.1,1.1,1.1l1.6,0.1l2.3,17c0.2,1.3,1.3,2.3,2.6,2.3     h24.8c1.3,0,2.4-1,2.6-2.3l2.3-17l1.6-0.1c0.6,0,1.1-0.5,1.1-1.1v-3.2C83.9,97.8,83.5,97.3,82.9,97.3z" fill="#EC7BB0"/></g><g><path d="M82.9,96H45c-1.3,0-2.3,1-2.3,2.3v0.1v3v0.1c0,1.3,1,2.3,2.2,2.3c0,0,0,0,0,0l0.6,0l2.2,16     c0.2,1.9,1.9,3.4,3.9,3.4h24.8c2,0,3.6-1.5,3.8-3.4l2.2-16l0.5,0c1.3,0,2.3-1,2.3-2.3v-0.1v-3v-0.1C85.2,97.1,84.1,96,82.9,96z      M45.2,101.3v-2.8h37.5v2.8H45.2z M77.7,119.5c-0.1,0.7-0.7,1.2-1.4,1.2H51.5c-0.7,0-1.3-0.5-1.4-1.2L48,103.8h31.9L77.7,119.5z" fill="#62355C"/><g><path d="M60.5,86.3c-0.6-0.3-1.4-0.1-1.7,0.6l-6,11.9c-0.3,0.6-0.1,1.4,0.6,1.7c0.2,0.1,0.4,0.1,0.6,0.1      c0.5,0,0.9-0.3,1.1-0.7L61,88C61.3,87.4,61.1,86.7,60.5,86.3z" fill="#62355C"/></g><g><path d="M69,86.9c-0.3-0.6-1.1-0.9-1.7-0.6c-0.6,0.3-0.9,1.1-0.6,1.7l6,11.9c0.2,0.4,0.7,0.7,1.1,0.7      c0.2,0,0.4,0,0.6-0.1c0.6-0.3,0.9-1.1,0.6-1.7L69,86.9z" fill="#62355C"/></g></g><g><g><path d="M90.2,119.8L90.2,119.8c0.8-0.4,1.7-0.8,2.5-1.2C91.8,119,91,119.4,90.2,119.8z" fill="#62355C"/><path d="M35.2,118.5c0.8,0.4,1.7,0.8,2.5,1.2C36.9,119.3,36,118.9,35.2,118.5z" fill="#62355C"/></g><path d="M37.7,52.3c0-0.7-0.6-1.2-1.2-1.2s-1.2,0.6-1.2,1.2v66.2c0.8,0.4,1.7,0.8,2.5,1.2V52.3z" fill="#62355C"/><path d="M91.4,51c-0.7,0-1.2,0.6-1.2,1.2v67.5c0.8-0.4,1.7-0.8,2.5-1.2V52.3C92.7,51.6,92.1,51,91.4,51z" fill="#62355C"/></g><g><g><path d="M58.9,50.1l-2.6,22.5c0,4.3,3.5,7.8,7.8,7.8s7.8-3.5,7.8-7.8l-2.6-22.5H58.9z" fill="#65C5B4"/></g><g><path d="M40.7,72.6c0,4.3,3.5,7.8,7.8,7.8s7.8-3.5,7.8-7.8l2.6-22.5H48.5L40.7,72.6z" fill="#FFFFFF"/><path d="M58.9,48.8H48.5c-0.5,0-1,0.3-1.2,0.8l-7.8,22.5c0,0.1-0.1,0.3-0.1,0.4c0,5,4.1,9.1,9.1,9.1      c5,0,9-4,9.1-9l2.6-22.5c0-0.4-0.1-0.7-0.3-1C59.6,49,59.3,48.8,58.9,48.8z M55.1,72.5c0,0,0,0.1,0,0.1c0,3.6-2.9,6.6-6.6,6.6      c-3.5,0-6.4-2.8-6.6-6.4l7.4-21.5h8.1L55.1,72.5z" fill="#FFFFFF"/></g><g><path d="M25.1,72.6c0,4.3,3.5,7.8,7.8,7.8s7.8-3.5,7.8-7.8l7.8-22.5H38.1L25.1,72.6z" fill="#65C5B4"/></g><g><path d="M69.4,50.1L72,72.6c0,4.3,3.5,7.8,7.8,7.8s7.8-3.5,7.8-7.8l-7.8-22.5H69.4z" fill="#FFFFFF"/><path d="M81,49.7c-0.2-0.5-0.6-0.8-1.2-0.8H69.4c-0.4,0-0.7,0.2-0.9,0.4c-0.2,0.3-0.3,0.6-0.3,1l2.6,22.5      c0,5,4.1,9,9.1,9c5,0,9.1-4.1,9.1-9.1c0-0.1,0-0.3-0.1-0.4L81,49.7z M79.8,79.2c-3.6,0-6.6-2.9-6.6-6.6c0,0,0-0.1,0-0.1      l-2.4-21.2h8.1l7.4,21.5C86.2,76.3,83.3,79.2,79.8,79.2z" fill="#FFFFFF"/></g><g><path d="M79.8,50.1l7.8,22.5c0,4.3,3.5,7.8,7.8,7.8s7.8-3.5,7.8-7.8L90.2,50.1H79.8z" fill="#65C5B4"/></g><g><path d="M70.6,49.9c-0.1-0.6-0.6-1.1-1.2-1.1H58.9c-0.6,0-1.2,0.5-1.2,1.1l-2.6,22.5c0,0,0,0.1,0,0.1      c0,5,4.1,9.1,9.1,9.1s9.1-4.1,9.1-9.1c0,0,0-0.1,0-0.1L70.6,49.9z M64.2,79.2c-3.6,0-6.5-2.9-6.6-6.5L60,51.3h8.2l2.5,21.4      C70.7,76.3,67.7,79.2,64.2,79.2z" fill="#62355C"/></g><g><path d="M58.9,48.8H48.5c-0.5,0-1,0.3-1.2,0.8l-7.8,22.5c0,0.1-0.1,0.3-0.1,0.4c0,5,4.1,9.1,9.1,9.1      c5,0,9-4,9.1-9l2.6-22.5c0-0.4-0.1-0.7-0.3-1C59.6,49,59.3,48.8,58.9,48.8z M55.1,72.5c0,0,0,0.1,0,0.1c0,3.6-2.9,6.6-6.6,6.6      c-3.5,0-6.4-2.8-6.6-6.4l7.4-21.5h8.1L55.1,72.5z" fill="#62355C"/></g><g><path d="M48.5,48.8h-9.1c-1.2,0-2.4,0.5-3.2,1.5c-0.1,0.1-0.1,0.1-0.1,0.2L24,72c-0.1,0.2-0.2,0.4-0.2,0.6      c0,5,4.1,9.1,9.1,9.1c4.9,0,8.9-3.9,9.1-8.8l7.7-22.4c0.1-0.4,0.1-0.8-0.2-1.1C49.3,49,48.9,48.8,48.5,48.8z M39.5,72.2      c0,0.1-0.1,0.3-0.1,0.4c0,3.6-2.9,6.6-6.6,6.6c-3.5,0-6.4-2.8-6.5-6.2l11.8-21.1c0.3-0.3,0.7-0.5,1.2-0.5h7.3L39.5,72.2z" fill="#62355C"/></g><g><path d="M81,49.7c-0.2-0.5-0.6-0.8-1.2-0.8H69.4c-0.4,0-0.7,0.2-0.9,0.4c-0.2,0.3-0.3,0.6-0.3,1l2.6,22.5      c0,5,4.1,9,9.1,9c5,0,9.1-4.1,9.1-9.1c0-0.1,0-0.3-0.1-0.4L81,49.7z M79.8,79.2c-3.6,0-6.6-2.9-6.6-6.6c0,0,0-0.1,0-0.1      l-2.4-21.2h8.1l7.4,21.5C86.2,76.3,83.3,79.2,79.8,79.2z" fill="#62355C"/></g><g><path d="M92.2,50.5c0-0.1-0.1-0.1-0.1-0.2c-0.8-0.9-1.9-1.5-3.2-1.5h-9.1c-0.4,0-0.8,0.2-1,0.5      c-0.2,0.3-0.3,0.8-0.2,1.1l7.7,22.4c0.1,4.9,4.1,8.8,9.1,8.8c5,0,9.1-4.1,9.1-9.1c0-0.2-0.1-0.4-0.2-0.6L92.2,50.5z M95.4,79.2      c-3.6,0-6.6-2.9-6.6-6.6c0-0.1,0-0.3-0.1-0.4l-7.2-20.9h7.3c0.4,0,0.9,0.2,1.2,0.5l11.8,21.1C101.8,76.4,98.9,79.2,95.4,79.2z" fill="#62355C"/></g><polygon fill="#593055" opacity="0.2" points="37.9,50.1 95.4,57.8 90.2,50.1    "/><path d="M64.2,80.4c4.3,0,7.8-3.5,7.8-7.8H56.3C56.3,76.9,59.8,80.4,64.2,80.4z" fill="#593055" opacity="0.2"/><path d="M48.5,80.4c4.3,0,7.8-3.5,7.8-7.8H40.7C40.7,76.9,44.2,80.4,48.5,80.4z" fill="#593055" opacity="0.2"/><path d="M32.9,80.4c4.3,0,7.8-3.5,7.8-7.8H25.1C25.1,76.9,28.6,80.4,32.9,80.4z" fill="#593055" opacity="0.2"/><path d="M79.8,80.4c4.3,0,7.8-3.5,7.8-7.8H72C72,76.9,75.5,80.4,79.8,80.4z" fill="#593055" opacity="0.2"/><path d="M95.4,80.4c4.3,0,7.8-3.5,7.8-7.8H87.6C87.6,76.9,91.1,80.4,95.4,80.4z" fill="#593055" opacity="0.2"/></g><g><path d="     M66.6,126.4" fill="none" stroke="#404243" stroke-linecap="round" stroke-linejoin="round" stroke-miterlimit="10" stroke-width="2.5"/></g><g><circle cx="55.5" cy="40" fill="#62355C" r="1.5"/></g><g><path d="M73.1,38.7H60.6c-0.7,0-1.2,0.6-1.2,1.2s0.6,1.2,1.2,1.2h12.6c0.7,0,1.2-0.6,1.2-1.2S73.8,38.7,73.1,38.7     z" fill="#62355C"/></g><g><path d="     M66.6,107.9" fill="none" stroke="#404243" stroke-linecap="round" stroke-linejoin="round" stroke-miterlimit="10" stroke-width="2.5"/></g></g></g></svg>