<?xml version="1.0" ?><!DOCTYPE svg  PUBLIC '-//W3C//DTD SVG 1.1//EN'  'http://www.w3.org/Graphics/SVG/1.1/DTD/svg11.dtd'><svg enable-background="new 0 0 128 128" id="Слой_1" version="1.1" viewBox="0 0 128 128" xml:space="preserve" xmlns="http://www.w3.org/2000/svg" xmlns:xlink="http://www.w3.org/1999/xlink"><g><g><path d="M60.6,5.6l-14.9,7.9c-0.3,0.2-0.5,0.3-0.8,0.6l-4.1,4.2c-0.4,0.4-1,0.7-1.6,0.9l-6.7,1.5    c-0.3,0.1-0.5,0.2-0.8,0.3l-18,9.6c-2.6,1.4-4.2,4.1-4.2,7.1v49.8c0,2.8,1.5,5.4,3.9,6.9l46.9,27.8c2.5,1.5,5.7,1.5,8.2,0    l46.1-27.8c2.4-1.5,3.9-4.1,3.9-6.9V37.6c0-2.9-1.6-5.6-4.2-7l-46.1-25C65.8,4.3,63,4.3,60.6,5.6z" fill="#D6AB7F"/></g><g><path d="M64.4,124.5L64.4,124.5c-1.7,0-3.3-0.4-4.7-1.3L12.8,95.4c-2.8-1.7-4.5-4.7-4.5-8V37.6    c0-3.4,1.9-6.6,4.9-8.2l18-9.6c0.3-0.2,0.7-0.3,1.1-0.4l6.7-1.5c0.4-0.1,0.7-0.3,1-0.5l4.1-4.2c0.3-0.3,0.7-0.6,1.1-0.8L60,4.5    c2.7-1.4,6.1-1.4,8.8,0l46.1,25c3,1.6,4.8,4.7,4.8,8.1v49.9c0,3.2-1.7,6.3-4.5,7.9l-46.1,27.8C67.7,124.1,66.1,124.5,64.4,124.5z     M64.4,5.9c-1.1,0-2.2,0.3-3.2,0.8l-14.9,7.9c-0.2,0.1-0.3,0.2-0.5,0.4l-4.1,4.2c-0.6,0.6-1.4,1-2.2,1.2l-6.7,1.5    c-0.2,0-0.3,0.1-0.5,0.2l-18,9.6c-2.2,1.2-3.6,3.5-3.6,6v49.8c0,2.4,1.3,4.6,3.3,5.8l46.9,27.8c2.1,1.2,4.9,1.2,6.9,0L114,93.3    c2-1.2,3.3-3.4,3.3-5.8V37.6c0-2.5-1.4-4.8-3.5-5.9l-46.1-25C66.6,6.1,65.5,5.9,64.4,5.9z" fill="#62355C"/></g><g><path d="M64.4,62.3c-1.5,0-3-0.4-4.4-1.1L11.2,35.1c-0.6-0.3-0.8-1.1-0.5-1.7c0.3-0.6,1.1-0.8,1.7-0.5L61.2,59    c2,1.1,4.4,1.1,6.4,0l49.2-26.6c0.6-0.3,1.4-0.1,1.7,0.5c0.3,0.6,0.1,1.4-0.5,1.7L68.8,61.2C67.4,61.9,65.9,62.3,64.4,62.3z" fill="#62355C"/></g><g><path d="M32.2,20.7l48.9,27.9c2.5,1.4,4,4.1,4,7l0,4.8c0,1.2,1.3,2,2.4,1.4l9.5-5.2c1-0.6,1.7-1.6,1.7-2.8v-5.6    c0-2.9-1.6-5.6-4.1-7L45.3,13.7L32.2,20.7z" fill="#FFFFFF"/></g><g opacity="0.2"><path d="M64.4,124.6l53.3-32.1c0.5-0.3,0.8-0.8,0.8-1.4V35.6c0-1.3-1.4-2.1-2.5-1.5l-51.6,28V124.6z" fill="#593055"/></g><g><path d="M64.4,124.3c-0.7,0-1.2-0.6-1.2-1.2V62.1c0-0.7,0.6-1.2,1.2-1.2s1.2,0.6,1.2,1.2V123    C65.7,123.7,65.1,124.3,64.4,124.3z" fill="#62355C"/></g><g><polygon fill="#FFFFFF" points="32.2,20.7 32.2,20.7 44.8,14   "/></g><g><path d="M86.7,63.2C86.7,63.2,86.7,63.2,86.7,63.2c-1.6,0-2.9-1.3-2.9-2.9v-4.8c0-2.4-1.3-4.7-3.4-5.9L31.5,21.8    c-0.4-0.2-0.6-0.6-0.6-1.1c0-0.5,0.3-0.9,0.7-1.1l13.1-7c0.4-0.2,0.8-0.2,1.2,0l49.2,27.5c2.9,1.6,4.8,4.7,4.8,8.1v5.6    c0,1.6-0.9,3.1-2.3,3.9l-9.5,5.2C87.7,63.1,87.2,63.2,86.7,63.2z M34.7,20.8l47,26.7c2.9,1.6,4.7,4.7,4.7,8v4.8    c0,0.2,0.2,0.4,0.4,0.4l0,0c0.1,0,0.1,0,0.2,0l9.5-5.2c0.6-0.3,1-1,1-1.7v-5.6c0-2.5-1.3-4.7-3.5-5.9L45.3,15.2L34.7,20.8z" fill="#62355C"/></g></g></svg>