<?xml version="1.0" ?><!DOCTYPE svg  PUBLIC '-//W3C//DTD SVG 1.1//EN'  'http://www.w3.org/Graphics/SVG/1.1/DTD/svg11.dtd'><svg enable-background="new 0 0 128 128" id="Слой_1" version="1.1" viewBox="0 0 128 128" xml:space="preserve" xmlns="http://www.w3.org/2000/svg" xmlns:xlink="http://www.w3.org/1999/xlink"><g><circle cx="64" cy="64" fill="#EFEFEF" r="62"/><g><g><path d="M55.6,45.3c10.7-4.1,20.6-11.9,17.2-28.8L67.6,2.1C66.4,2,65.2,2,64,2C46.1,2,30,9.6,18.6,21.7l3.3,8.5     C27.1,43.7,42.2,50.5,55.6,45.3z" fill="#EAC39C"/></g><path d="M56.1,45.3c9.2-3.5,17.8-9.7,17.9-22.1c0-3.4-0.7-6.7-1.8-9.9l-4-11.1C66.7,2.1,65.4,2,64,2    C46.3,2,30.3,9.5,19,21.4l3.4,8.9C27.5,43.7,42.6,50.5,56.1,45.3z" fill="#593055" opacity="0.2"/><g><path d="M46.3,48.3C46.3,48.3,46.3,48.3,46.3,48.3c3.3,0,6.6-0.6,9.8-1.8c12.3-4.7,18.6-12.5,18.7-23.3     c0-3.3-0.6-6.7-1.9-10.3L69,2.2c-0.9-0.1-1.8-0.1-2.7-0.2l4.2,11.7c1.2,3.3,1.8,6.5,1.8,9.5c-0.1,9.7-5.7,16.6-17.1,21     c-2.9,1.1-5.8,1.6-8.9,1.6c0,0,0,0,0,0c-10.2,0-19.6-6.4-23.2-16l-3.5-9.1c-0.6,0.7-1.3,1.3-1.9,2l3,7.9     C24.8,41.2,35,48.3,46.3,48.3z" fill="#62355C"/></g><g><circle cx="64" cy="62.8" fill="#F6CD29" r="40"/></g><g><circle cx="64" cy="62.8" fill="#FEE444" r="40"/></g><g><path d="M64,21.6c-22.7,0-41.2,18.5-41.2,41.2s18.5,41.2,41.2,41.2s41.2-18.5,41.2-41.2S86.8,21.6,64,21.6z      M64,101.6c-21.4,0-38.7-17.4-38.7-38.7S42.7,24.1,64,24.1s38.7,17.4,38.7,38.7S85.4,101.6,64,101.6z" fill="#62355C"/></g><g opacity="0.3"><path d="M64,31.9c-17.1,0-31,13.9-31,31s13.9,31,31,31c17.1,0,31-13.9,31-31S81.1,31.9,64,31.9z" fill="#F6F7F6"/></g><g><path d="M64,30.6c-17.8,0-32.2,14.5-32.2,32.2S46.2,95.1,64,95.1c17.8,0,32.2-14.5,32.2-32.2S81.8,30.6,64,30.6z      M64,92.6c-16.4,0-29.7-13.3-29.7-29.7S47.6,33.1,64,33.1s29.7,13.3,29.7,29.7S80.4,92.6,64,92.6z" fill="#62355C"/></g><g><path d="M69.4,63.1c-0.9-0.6-1.9-1-2.9-1.3c-0.9-0.3-1.8-0.5-2.8-0.8c-0.8-0.2-1.7-0.5-2.5-0.8     c-0.6-0.2-1.2-0.6-1.7-1c-0.4-0.3-0.7-0.8-1-1.4c-0.2-0.4-0.4-1.1-0.4-2.4c0-0.7,0.1-1.3,0.3-1.9c0.2-0.6,0.6-1.1,1-1.6     c0.4-0.5,1-0.9,1.7-1.2c0.7-0.3,1.6-0.5,2.7-0.5c1,0,1.9,0.2,2.6,0.5c0.7,0.3,1.2,0.7,1.7,1.2c0.4,0.5,0.8,1.1,1,1.9     c0.3,0.8,1.1,1.2,1.9,1c0.8-0.3,1.2-1.1,1-1.9c-0.3-1.1-0.9-2-1.6-2.9c-0.7-0.8-1.6-1.5-2.7-2c-0.7-0.3-1.5-0.5-2.4-0.6v-1.1     c0-0.8-0.7-1.5-1.5-1.5c-0.8,0-1.5,0.7-1.5,1.5v1.1c-0.8,0.1-1.6,0.3-2.3,0.6c-1.1,0.5-2,1.1-2.8,1.9c-0.7,0.8-1.3,1.6-1.6,2.6     c-0.4,1-0.5,2-0.5,3c0,1.4,0.2,2.7,0.7,3.6c0.4,1,1,1.8,1.8,2.4c0.7,0.6,1.6,1.1,2.5,1.5c0.9,0.4,1.8,0.7,2.8,0.9     c0.9,0.3,1.8,0.5,2.7,0.8c0.8,0.2,1.6,0.6,2.2,1c0.6,0.4,1.1,0.9,1.5,1.6c0.4,0.7,0.6,1.5,0.6,2.6c0,0.8-0.1,1.5-0.3,2.2     c-0.2,0.7-0.6,1.3-1,1.8c-0.4,0.5-1,0.9-1.7,1.2c-0.7,0.3-1.5,0.4-2.5,0.4c-0.8,0-1.6-0.1-2.4-0.3c-0.7-0.2-1.4-0.6-1.9-1.1     c-0.6-0.5-1-1.2-1.4-2.1c-0.3-0.8-1.2-1.1-2-0.8c-0.8,0.3-1.1,1.2-0.8,2c0.5,1.2,1.3,2.3,2.1,3.1c0.9,0.8,1.9,1.4,3,1.7     c0.4,0.1,0.9,0.2,1.4,0.3v1.2c0,0.8,0.7,1.5,1.5,1.5c0.8,0,1.5-0.7,1.5-1.5v-1.1c0.9-0.1,1.8-0.3,2.6-0.6     c1.1-0.5,2.1-1.1,2.8-1.9c0.7-0.8,1.3-1.8,1.6-2.9c0.3-1,0.5-2.1,0.5-3.2c0-1.6-0.3-3-1-4.2C71.2,64.6,70.4,63.7,69.4,63.1z" fill="#62355C"/></g><g><path d="     M63.9,77.5" fill="none" stroke="#404243" stroke-linecap="round" stroke-linejoin="round" stroke-miterlimit="10" stroke-width="2.5"/></g><g><path d="M51.6,54.4c7.9-8.5,13.4-20.1,2.6-34L40,6.8C22.8,14.1,9.6,28.8,4.4,47l9.7,8.9     C24.9,65.8,41.7,65.1,51.6,54.4z" fill="#EAC39C"/><path d="M32.1,64.2C32.1,64.2,32.1,64.2,32.1,64.2c7.8,0,15.2-3.3,20.4-9c10.9-11.9,11.8-23.8,2.6-35.6L41.2,6.3     c-0.8,0.3-1.7,0.7-2.5,1.1l14.5,13.8c8.4,10.8,7.5,21.4-2.5,32.3c-4.8,5.2-11.6,8.2-18.6,8.2h0c-6.3,0-12.4-2.4-17.1-6.7     L4.8,45.6c-0.3,0.9-0.5,1.8-0.8,2.7l9.3,8.5C18.4,61.6,25.1,64.2,32.1,64.2z" fill="#B7936B"/></g><g><path d="M32.1,64.2C32.1,64.2,32.1,64.2,32.1,64.2c7.8,0,15.2-3.3,20.4-9c10-10.9,11.6-21.9,4.6-32.7     c-1-1.6-2.4-3.2-4-4.8L41.2,6.3c-0.8,0.3-1.7,0.7-2.5,1.1l12.7,12.1c1.5,1.4,2.7,2.9,3.6,4.3c6.3,9.9,4.9,19.6-4.4,29.7     c-4.8,5.2-11.6,8.2-18.6,8.2h0c-6.3,0-12.4-2.4-17.1-6.7L4.8,45.6c-0.3,0.9-0.5,1.8-0.8,2.7l9.3,8.5     C18.4,61.6,25.1,64.2,32.1,64.2z" fill="#62355C"/></g><g opacity="0.5"><path d="M19.1,52.8c6.8,7.6,20.3,7.2,28.3-1.6c8.9-9.7,8.8-23.7,0.7-30c-5.3-4.1-10.6-8-14.2-10.6     c-0.2-0.2-0.5-0.3-0.7-0.5C21.7,16.8,12.4,27,7.1,39.4c0.2,0.2,0.4,0.5,0.6,0.7C10.5,43.2,14.7,47.8,19.1,52.8z" fill="#F6F5F3"/></g><g><path d="M18.2,53.6c3.2,3.6,7.9,5.6,13.2,5.6c0,0,0,0,0,0c6.1,0,12.2-2.6,17-7.1c5.3-5,8-11.4,7.7-17.8     c-0.3-5.6-2.9-10.7-7.1-14.1c-5.3-4.1-10.6-8-14.2-10.6c-0.1-0.1-0.2-0.1-0.2-0.2c-0.8,0.5-1.7,0.9-2.5,1.4     c0.4,0.2,0.9,0.5,1.3,0.8c3.5,2.6,8.9,6.4,14.1,10.5c3.7,2.9,5.9,7.3,6.2,12.2c0.3,5.7-2.2,11.4-7,15.9     c-4.3,4.1-9.8,6.4-15.2,6.4c-4.6,0-8.6-1.7-11.3-4.7c-4.5-5-8.7-9.7-11.5-12.7c-0.3-0.4-0.6-0.8-0.9-1.2     c-0.4,0.9-0.8,1.7-1.1,2.6c0.1,0.1,0.1,0.2,0.2,0.2C9.5,43.9,13.7,48.6,18.2,53.6z" fill="#62355C"/></g></g></g></svg>