<?xml version="1.0" ?><!DOCTYPE svg  PUBLIC '-//W3C//DTD SVG 1.1//EN'  'http://www.w3.org/Graphics/SVG/1.1/DTD/svg11.dtd'><svg enable-background="new 0 0 128 128" id="Слой_1" version="1.1" viewBox="0 0 128 128" xml:space="preserve" xmlns="http://www.w3.org/2000/svg" xmlns:xlink="http://www.w3.org/1999/xlink"><g><circle cx="64" cy="64" fill="#D6D6D6" r="62"/><g><g><g><path d="M107.3,61.9c0-0.7-0.3-1.4-0.9-1.9l-5.5-4.9V35.4c0-1.9-1.5-3.4-3.4-3.4H10.9      c-3.7,6.2-6.4,13.1-7.8,20.4V55l-0.5,0.4C2.2,58.3,2,61.1,2,64c0,0.1,0,0.3,0,0.4h102.7C106.1,64.4,107.3,63.3,107.3,61.9z" fill="#FFFFFF"/></g><g><path d="M104.7,60.7H2.1C2,61.8,2,62.9,2,64c0,34.2,27.8,62,62,62c16.8,0,32.1-6.7,43.3-17.6V63.3      C107.3,61.9,106.1,60.7,104.7,60.7z" fill="#4D4F51"/></g><g><path d="M104.7,60.7H2.1C2,61.8,2,62.9,2,64c0,34.2,27.8,62,62,62c16.8,0,32.1-6.7,43.3-17.6V63.3      C107.3,61.9,106.1,60.7,104.7,60.7z" fill="#C27DB5"/></g><path d="M4.3,55v-7.9c-0.9,3.3-1.6,6.7-2,10.2L3.9,56C4.2,55.7,4.3,55.4,4.3,55z" fill="#62355C"/><path d="M97.5,33.2c1.2,0,2.2,1,2.2,2.2V55c0,0.4,0.2,0.7,0.4,0.9l3.9,3.5H2.2c-0.1,0.8-0.1,1.7-0.1,2.5h102.7     c0.7,0,1.3,0.6,1.3,1.3v46.3c0.9-0.8,1.7-1.6,2.5-2.4V61.9c0-1.1-0.5-2.1-1.3-2.9l-5.1-4.5v-19c0-2.6-2.1-4.7-4.7-4.7H11.7     c-0.5,0.8-1,1.7-1.5,2.5H97.5z" fill="#62355C"/><g><circle cx="26.2" cy="77.4" fill="#62355C" r="6.1"/></g><g><circle cx="77.8" cy="77.4" fill="#62355C" r="6.1"/></g><g><path d="M15.9,43.7l-7.6-6.9c-2.4,4.9-4.2,10.1-5.2,15.7V55L15.9,43.7z" fill="#C27DB5"/></g><g><path d="M3.1,56.3c0.3,0,0.6-0.1,0.8-0.3l12.8-11.3c0.3-0.2,0.4-0.6,0.4-0.9c0-0.4-0.1-0.7-0.4-0.9l-7.8-7.2      c-0.4,0.8-0.8,1.5-1.1,2.3l6.3,5.7l-9.6,8.6v-5.1c-0.8,2.9-1.4,5.9-1.8,9c0,0,0,0,0.1,0C2.7,56.2,2.9,56.3,3.1,56.3z" fill="#62355C"/></g><g><path d="M98,34.6l-9.9,9.1L100.9,55V35.9C100.9,34.4,99.1,33.6,98,34.6z" fill="#C27DB5"/></g><g><path d="M99.2,32.9c-0.7,0-1.4,0.3-2,0.8l-9.9,9.1c-0.3,0.2-0.4,0.6-0.4,0.9c0,0.4,0.2,0.7,0.4,0.9L100.1,56      c0.2,0.2,0.5,0.3,0.8,0.3c0.2,0,0.3,0,0.5-0.1c0.4-0.2,0.7-0.6,0.7-1.1V35.9C102.2,34.3,100.8,32.9,99.2,32.9z M99.7,52.3      L90,43.7l8.9-8.1c0.1-0.1,0.2-0.1,0.3-0.1c0.2,0,0.5,0.1,0.5,0.5V52.3z" fill="#62355C"/></g><g><path d="M15.9,62c0.7,0,1.2-0.6,1.2-1.2v-17c0-0.5-0.3-0.9-0.7-1.1c-0.4-0.2-1-0.1-1.3,0.2L2.9,53.5      c-0.2,1.3-0.4,2.6-0.5,3.9c0.1-0.1,0.1-0.2,0.2-0.3l12-10.7v13H3.5c-0.8,0-1.1-0.6-1.2-0.8c-0.1,1-0.2,2-0.2,3.1      C2.5,61.9,3,62,3.5,62H15.9z" fill="#62355C"/></g><g><path d="M89,42.8c-0.4-0.3-0.9-0.4-1.3-0.2c-0.4,0.2-0.7,0.6-0.7,1.1v17c0,0.7,0.6,1.2,1.2,1.2h12.4      c1.6,0,3-1,3.6-2.5c0.6-1.5,0.2-3.1-1-4.2L89,42.8z M101.8,58.6c-0.1,0.2-0.4,0.8-1.2,0.8H89.4v-13l12,10.7      C102,57.7,101.8,58.4,101.8,58.6z" fill="#62355C"/></g></g><g><path d="M77.8,74.7c-1.4,0-2.5,1.1-2.5,2.5v16.9c0,12.9-10.5,23.3-23.3,23.3S28.7,107,28.7,94.1V77.2     c0-1.4-1.1-2.5-2.5-2.5s-2.5,1.1-2.5,2.5v16.9c0,15.6,12.7,28.3,28.3,28.3s28.3-12.7,28.3-28.3V77.2     C80.3,75.8,79.2,74.7,77.8,74.7z" fill="#F1F7F2"/></g></g></g></svg>