<svg id="Capa_1" enable-background="new 0 0 512 512" height="512" viewBox="0 0 512 512" width="512" xmlns="http://www.w3.org/2000/svg" xmlns:xlink="http://www.w3.org/1999/xlink"><linearGradient id="SVGID_1_" gradientUnits="userSpaceOnUse" x1="74.98" x2="437.019" y1="437.019" y2="74.98"><stop offset="0" stop-color="#560dff"/><stop offset="1" stop-color="#73ecff"/></linearGradient><radialGradient id="SVGID_2_" cx="257.013" cy="280.338" gradientUnits="userSpaceOnUse" r="256"><stop offset="0" stop-color="#663deb"/><stop offset="1" stop-color="#25d2db" stop-opacity="0"/></radialGradient><linearGradient id="lg1"><stop offset="0" stop-color="#389fff"/><stop offset=".1209" stop-color="#45affa"/><stop offset=".5726" stop-color="#73e9e7"/><stop offset=".79" stop-color="#85ffe0"/><stop offset=".881" stop-color="#9dffe6"/><stop offset="1" stop-color="#c2fff0"/></linearGradient><linearGradient id="SVGID_3_" gradientUnits="userSpaceOnUse" x1="-132.628" x2="439.815" xlink:href="#lg1" y1="644.628" y2="72.185"/><linearGradient id="SVGID_4_" gradientUnits="userSpaceOnUse" x1="17.408" x2="405.16" xlink:href="#lg1" y1="497.077" y2="109.325"/><linearGradient id="SVGID_5_" gradientUnits="userSpaceOnUse" x1="124.408" x2="372.888" xlink:href="#lg1" y1="322.929" y2="74.45"/><linearGradient id="SVGID_6_" gradientUnits="userSpaceOnUse" x1="165.188" x2="506.126" xlink:href="#lg1" y1="411.475" y2="70.537"/><linearGradient id="SVGID_7_" gradientUnits="userSpaceOnUse" x1="29.435" x2="570.904" xlink:href="#lg1" y1="482.565" y2="-58.904"/><g><circle cx="256" cy="256" fill="url(#SVGID_1_)" r="256"/><circle cx="256" cy="256" fill="url(#SVGID_2_)" r="256"/><circle cx="256" cy="256" fill="url(#SVGID_3_)" r="200.9"/><path d="m278.729 410.726c-108.436.016-201.1-92.153-200.337-199.969.227-22.666 4.538-44.485 12.134-64.968-22.138 31.998-35.443 69.742-35.426 110.211.561 107.095 93.806 200.34 200.9 200.9 85.146-.062 160.451-59.432 189.304-136.367-36.984 52.873-98.338 89.902-166.575 90.193z" fill="url(#SVGID_4_)"/><path d="m179.136 240.68c-8.489.015-15.386 6.875-15.386 15.32s6.896 15.305 15.386 15.32c10.249.015 20.497.026 30.746.035-.009-10.237-.009-20.474 0-30.711-10.249.01-20.497.021-30.746.036z" fill="url(#SVGID_5_)"/><path d="m240.645 302.119c.009 10.249.021 20.497.035 30.746.015 8.489 6.875 15.387 15.32 15.386 8.445.001 15.305-6.897 15.32-15.386.015-10.249.026-20.497.035-30.746-10.237.008-20.473.008-30.71 0z" fill="url(#SVGID_6_)"/><path d="m332.864 240.68c-20.497-.029-40.994-.047-61.491-.053-.006-20.497-.023-40.994-.053-61.491-.015-8.489-6.875-15.387-15.32-15.386-8.445-.001-15.305 6.896-15.32 15.386-.029 20.497-.047 40.994-.053 61.491-10.249.003-20.497.009-30.746.018-8.49.009-15.381 6.885-15.382 15.355 0 8.471 6.892 15.347 15.382 15.355 10.249.009 20.497.015 30.746.017.003 10.249.009 20.497.018 30.746.009 8.49 6.885 15.382 15.355 15.382s15.346-6.892 15.355-15.382c.009-10.249.015-20.497.018-30.746 20.497-.006 40.994-.023 61.491-.053 8.49-.016 15.386-6.876 15.386-15.32 0-8.445-6.897-15.304-15.386-15.319z" fill="url(#SVGID_7_)"/></g></svg>