<svg height="512pt" viewBox="0 0 512 512" width="512pt" xmlns="http://www.w3.org/2000/svg" xmlns:xlink="http://www.w3.org/1999/xlink"><linearGradient id="a" gradientTransform="matrix(1 0 0 -1 0 -12310)" gradientUnits="userSpaceOnUse" x1="0" x2="512" y1="-12566" y2="-12566"><stop offset="0" stop-color="#00f38d"/><stop offset="1" stop-color="#009eff"/></linearGradient><path d="m512 256c0 141.386719-114.613281 256-256 256s-256-114.613281-256-256 114.613281-256 256-256 256 114.613281 256 256zm0 0" fill="url(#a)"/><g fill="#fff"><path d="m281.925781 456h-51.851562l-14.1875-53.332031c-12.273438-3.355469-24.058594-8.257813-35.199219-14.644531l-47.367188 27.273437-36.617187-36.617187 27.273437-47.371094c-6.386718-11.140625-11.289062-22.921875-14.644531-35.195313l-53.332031-14.1875v-51.851562l53.332031-14.1875c3.355469-12.273438 8.257813-24.054688 14.644531-35.199219l-27.273437-47.371094 36.617187-36.613281 47.367188 27.273437c11.140625-6.386718 22.925781-11.289062 35.199219-14.644531l14.1875-53.332031h51.851562l14.1875 53.332031c12.273438 3.355469 24.058594 8.257813 35.199219 14.644531l47.367188-27.273437 36.617187 36.617187-27.273437 47.371094c6.390624 11.140625 11.289062 22.921875 14.644531 35.195313l53.332031 14.1875v51.851562l-53.332031 14.1875c-3.355469 12.273438-8.257813 24.058594-14.644531 35.199219l27.273437 47.371094-36.617187 36.613281-47.371094-27.273437c-11.140625 6.386718-22.921875 11.289062-35.195313 14.644531zm-28.789062-30h5.726562l12.9375-48.632812 9.074219-1.878907c14.902344-3.085937 29.023438-8.957031 41.960938-17.453125l7.71875-5.066406 43.171874 24.855469 4.101563-4.101563-24.855469-43.171875 5.066406-7.714843c8.492188-12.941407 14.363282-27.058594 17.449219-41.964844l1.878907-9.074219 48.632812-12.933594v-5.726562l-48.632812-12.9375-1.878907-9.074219c-3.085937-14.902344-8.957031-29.019531-17.453125-41.960938l-5.066406-7.71875 24.855469-43.171874-4.097657-4.097657-43.175781 24.855469-7.714843-5.066406c-12.9375-8.496094-27.058594-14.367188-41.964844-17.453125l-9.070313-1.878907-12.9375-48.632812h-5.726562l-12.9375 48.632812-9.070313 1.878907c-14.90625 3.085937-29.027344 8.957031-41.964844 17.453125l-7.71875 5.066406-43.171874-24.855469-4.101563 4.097657 24.859375 43.171874-5.066406 7.71875c-8.496094 12.941407-14.371094 27.058594-17.453125 41.960938l-1.878907 9.074219-48.632812 12.9375v5.726562l48.632812 12.9375 1.878907 9.074219c3.085937 14.90625 8.957031 29.023438 17.453125 41.960938l5.066406 7.71875-24.855469 43.171874 4.097657 4.101563 43.175781-24.855469 7.714843 5.0625c12.941407 8.496094 27.058594 14.367188 41.964844 17.453125l9.070313 1.878907zm187.863281-155.605469h.011719zm0 0"/><path d="m256 346.253906c-49.765625 0-90.253906-40.488281-90.253906-90.253906s40.488281-90.253906 90.253906-90.253906 90.253906 40.488281 90.253906 90.253906-40.488281 90.253906-90.253906 90.253906zm0-150.507812c-33.222656 0-60.253906 27.03125-60.253906 60.253906s27.03125 60.253906 60.253906 60.253906 60.253906-27.03125 60.253906-60.253906-27.03125-60.253906-60.253906-60.253906zm0 0"/></g></svg>