<?xml version="1.0" encoding="UTF-8"?>
<!DOCTYPE svg PUBLIC "-//W3C//DTD SVG 1.1//EN" "http://www.w3.org/Graphics/SVG/1.1/DTD/svg11.dtd">
<!-- Creator: CorelDRAW 2019 (64 Bit) -->
<svg xmlns="http://www.w3.org/2000/svg" xml:space="preserve" width="496px" height="494px" version="1.1" style="shape-rendering:geometricPrecision; text-rendering:geometricPrecision; image-rendering:optimizeQuality; fill-rule:evenodd; clip-rule:evenodd"
viewBox="0 0 55.96 55.77"
 xmlns:xlink="http://www.w3.org/1999/xlink">
 <defs>
  <style type="text/css">
   <![CDATA[
    .str0 {stroke:#F58634;stroke-width:0.27;stroke-miterlimit:22.9256}
    .fil0 {fill:#FEFEFE}
    .fil1 {fill:#F58634}
   ]]>
  </style>
 </defs>
 <g id="Camada_x0020_1">
  <metadata id="CorelCorpID_0Corel-Layer"/>
  <path class="fil0" d="M4.02 42.28c-9.48,-25.76 10.69,-37.63 23.87,-38.43 2.9,-0.17 7.1,0.79 11.3,2.93 0.52,-0.83 1.48,-1.09 2.41,-0.97 -0.12,-0.61 -0.07,-1.23 0.24,-1.74 -4.54,-2.69 -9.53,-4.13 -13.95,-4.07 -17.16,0.26 -36.41,19.32 -23.87,42.28zm44.36 -28.38c5.48,6.35 8.41,15.76 3.52,28.38 6.7,-12.58 4.35,-23.33 -1.58,-30.84 -0.47,0.28 -0.99,0.37 -1.47,0.68 -0.23,0.14 -0.18,0.99 -0.47,1.78z"/>
  <path class="fil0" d="M6.64 46.11c4.43,5.09 10.69,8.58 17.8,9.45 0.21,-0.65 0.44,-1.29 0.68,-1.93 0.73,-2 1.56,-3.95 2.38,-5.91 0.2,-0.48 0.91,-2.13 0.99,-2.75 -0.59,-0.91 -3.48,-1.18 -4.48,-2.02 -1.4,-1.16 -1.94,-3.49 -1.2,-5.15 0.12,-0.27 0.29,-0.51 0.49,-0.72 0.69,-0.68 1.45,-0.74 2.29,-1.04 0.42,-0.15 0.6,-0.29 0.7,-0.74 0.25,-1.06 0.76,-1.93 1.81,-2.34 0.38,-0.16 0.76,-0.19 1.12,-0.32 0.19,-0.06 0.28,-0.18 0.39,-0.34 0.52,-0.85 0.32,-2.26 0.37,-3.24l0.13 -2.08 1.6 0.48c0.25,0.08 0.52,0.17 0.78,0.27l0.05 -0.34c1.75,-3.67 4.73,-5.22 7.67,-7.39 0,0 0.39,-8.35 -2.19,-8.49 -2.58,-0.14 -5.2,2.19 -6.71,1.78 -1.51,-0.41 -4.11,-2.6 -8.35,-2.05 -4.25,0.54 -6.03,4.65 -8.22,5.34 -2.19,0.68 -3.19,8.27 -5.2,9.58 0.3,1.51 8.92,5.16 10.59,3.82 1.67,-1.33 -2.73,-11.4 -1.83,-12.31 0.2,2.47 5.78,10.71 2.88,13.15 -1.54,1.29 -4.02,0.67 -5.87,-0.1 -0.77,2.2 -5.3,8.73 -8.67,15.39z"/>
  <g id="_2943626784464">
   <path class="fil1 str0" d="M46.9 14.07c0.9,-0.44 0.31,-2.22 1.36,-2.89 1.04,-0.66 2.04,-0.46 1.9,-1.72 -0.14,-1.25 -4.06,-2.21 -5.48,-0.34 -1.42,1.87 0.7,5.69 2.22,4.95z"/>
   <ellipse class="fil1 str0" transform="matrix(0.27371 0.408824 -0.408823 0.27371 44.0681 5.96029)" rx="3.81" ry="2.38"/>
   <ellipse class="fil1 str0" transform="matrix(0.259496 0.41799 -0.41799 0.259496 47.2065 5.7797)" rx="3.61" ry="2.21"/>
   <ellipse class="fil1 str0" transform="matrix(0.43347 0.232718 -0.232718 0.43347 41.7271 8.3038)" rx="3.76" ry="2.59"/>
   <ellipse class="fil1 str0" transform="matrix(0.462588 0.16753 -0.167529 0.462588 41.8702 11.5941)" rx="3.43" ry="2.28"/>
  </g>
  <path class="fil0" d="M46.68 48.63c-1.65,-2.57 -3.26,-4.59 -4.42,-4.94 1.24,-5.21 -2.69,-12.79 -7.8,-13.97 0.02,0.61 0.15,1.31 0,1.78 -0.73,-0.76 0,-1.78 -3.15,-2.74 0,0 0.55,2.47 -0.55,4.25 -1.09,1.78 -2.6,0.27 -3.15,2.6 -0.54,2.33 -3.01,1.51 -3.56,2.74 -0.55,1.23 0,2.87 0.82,3.56 0.83,0.68 4.26,0.86 4.94,2.69 0.39,1.05 -2,5.26 -3.99,11.09 0.47,0.04 0.93,0.06 1.4,0.07 7.46,0.19 14.32,-2.54 19.46,-7.13z"/>
 </g>
</svg>
