<?xml version="1.0" encoding="UTF-8"?>
<!DOCTYPE svg PUBLIC "-//W3C//DTD SVG 1.1//EN" "http://www.w3.org/Graphics/SVG/1.1/DTD/svg11.dtd">
<!-- Creator: CorelDRAW 2019 (64 Bit) -->
<svg xmlns="http://www.w3.org/2000/svg" xml:space="preserve" width="496px" height="494px" version="1.1" style="shape-rendering:geometricPrecision; text-rendering:geometricPrecision; image-rendering:optimizeQuality; fill-rule:evenodd; clip-rule:evenodd"
viewBox="0 0 56.05 55.86"
 xmlns:xlink="http://www.w3.org/1999/xlink">
 <defs>
  <style type="text/css">
   <![CDATA[
    .str0 {stroke:#373435;stroke-width:0.27;stroke-miterlimit:22.9256}
    .str1 {stroke:#F58634;stroke-width:0.27;stroke-miterlimit:22.9256}
    .fil1 {fill:none}
    .fil2 {fill:#373435}
    .fil0 {fill:#373435}
    .fil3 {fill:#F58634}
   ]]>
  </style>
 </defs>
 <g id="Camada_x0020_1">
  <metadata id="CorelCorpID_0Corel-Layer"/>
  <path class="fil0" d="M4.03 42.35c-9.49,-25.8 10.7,-37.69 23.9,-38.49 2.9,-0.17 7.11,0.79 11.32,2.93 0.53,-0.84 1.48,-1.09 2.41,-0.97 -0.11,-0.61 -0.06,-1.24 0.24,-1.74 -4.54,-2.69 -9.54,-4.14 -13.97,-4.08 -17.18,0.26 -36.46,19.34 -23.9,42.35zm44.43 -28.43c5.48,6.36 8.42,15.78 3.52,28.43 6.71,-12.61 4.36,-23.37 -1.58,-30.89 -0.47,0.28 -0.99,0.37 -1.48,0.68 -0.23,0.14 -0.17,0.99 -0.46,1.78z"/>
  <path class="fil1 str0" d="M6.65 46.18c4.44,5.1 10.71,8.59 17.82,9.46 0.22,-0.65 0.45,-1.29 0.68,-1.93 0.74,-2 1.57,-3.95 2.39,-5.92 0.2,-0.48 0.92,-2.14 0.99,-2.75 -0.58,-0.91 -3.48,-1.19 -4.49,-2.02 -1.4,-1.17 -1.93,-3.5 -1.19,-5.17 0.12,-0.26 0.28,-0.51 0.49,-0.71 0.69,-0.69 1.45,-0.74 2.29,-1.05 0.42,-0.15 0.6,-0.29 0.7,-0.74 0.25,-1.06 0.76,-1.93 1.81,-2.34 0.39,-0.16 0.76,-0.19 1.13,-0.32 0.18,-0.06 0.28,-0.18 0.38,-0.34 0.52,-0.86 0.32,-2.26 0.38,-3.25l0.12 -2.08 1.6 0.49c0.26,0.07 0.53,0.16 0.79,0.26l0.05 -0.33c1.76,-3.68 4.74,-5.24 7.68,-7.41 0,0 0.4,-8.37 -2.19,-8.5 -2.59,-0.14 -5.21,2.19 -6.72,1.78 -1.51,-0.41 -4.12,-2.61 -8.37,-2.06 -4.25,0.55 -6.03,4.67 -8.23,5.35 -2.19,0.69 -3.19,8.29 -5.21,9.6 0.3,1.51 8.94,5.16 10.61,3.83 1.67,-1.34 -2.74,-11.43 -1.83,-12.33 0.2,2.47 5.78,10.73 2.88,13.16 -1.54,1.3 -4.02,0.68 -5.88,-0.1 -0.76,2.21 -5.31,8.75 -8.68,15.42z"/>
  <path class="fil2 str0" d="M6.65 46.18c4.44,5.1 10.71,8.59 17.82,9.46 0.22,-0.65 0.45,-1.29 0.68,-1.93 0.74,-2 1.57,-3.95 2.39,-5.92 0.2,-0.48 0.92,-2.14 0.99,-2.75 -0.58,-0.91 -3.48,-1.19 -4.49,-2.02 -1.4,-1.17 -1.93,-3.5 -1.19,-5.17 0.12,-0.26 0.28,-0.51 0.49,-0.71 0.69,-0.69 1.45,-0.74 2.29,-1.05 0.42,-0.15 0.6,-0.29 0.7,-0.74 0.25,-1.06 0.76,-1.93 1.81,-2.34 0.39,-0.16 0.76,-0.19 1.13,-0.32 0.18,-0.06 0.28,-0.18 0.38,-0.34 0.52,-0.86 0.32,-2.26 0.38,-3.25l0.12 -2.08 1.6 0.49c0.26,0.07 0.53,0.16 0.79,0.26l0.05 -0.33c1.76,-3.68 4.74,-5.24 7.68,-7.41 0,0 0.4,-8.37 -2.19,-8.5 -2.59,-0.14 -5.21,2.19 -6.72,1.78 -1.51,-0.41 -4.12,-2.61 -8.37,-2.06 -4.25,0.55 -6.03,4.67 -8.23,5.35 -2.19,0.69 -3.19,8.29 -5.21,9.6 0.3,1.51 8.94,5.16 10.61,3.83 1.67,-1.34 -2.74,-11.43 -1.83,-12.33 0.2,2.47 5.78,10.73 2.88,13.16 -1.54,1.3 -4.02,0.68 -5.88,-0.1 -0.76,2.21 -5.31,8.75 -8.68,15.42z"/>
  <g id="_2943564497328">
   <path class="fil3 str1" d="M46.97 14.09c0.9,-0.44 0.31,-2.22 1.36,-2.89 1.05,-0.66 2.05,-0.46 1.91,-1.72 -0.14,-1.26 -4.06,-2.22 -5.49,-0.35 -1.42,1.87 0.7,5.71 2.22,4.96z"/>
   <ellipse class="fil3 str1" transform="matrix(0.27371 0.408824 -0.408823 0.27371 44.1352 5.96936)" rx="3.82" ry="2.38"/>
   <ellipse class="fil3 str1" transform="matrix(0.259496 0.41799 -0.41799 0.259496 47.2784 5.7885)" rx="3.62" ry="2.21"/>
   <ellipse class="fil3 str1" transform="matrix(0.43347 0.232718 -0.232718 0.43347 41.7906 8.31645)" rx="3.77" ry="2.6"/>
   <ellipse class="fil3 str1" transform="matrix(0.462588 0.16753 -0.167529 0.462588 41.9339 11.6118)" rx="3.44" ry="2.29"/>
  </g>
  <path class="fil0" d="M46.75 48.7c-1.65,-2.57 -3.27,-4.59 -4.42,-4.95 1.23,-5.21 -2.7,-12.81 -7.82,-13.98 0.02,0.6 0.15,1.3 0,1.78 -0.73,-0.77 0,-1.78 -3.15,-2.74 0,0 0.55,2.46 -0.55,4.25 -1.1,1.78 -2.61,0.27 -3.16,2.6 -0.54,2.33 -3.01,1.51 -3.56,2.75 -0.55,1.23 0,2.88 0.82,3.56 0.83,0.69 4.27,0.86 4.95,2.7 0.39,1.05 -2.01,5.26 -4,11.11 0.47,0.03 0.93,0.06 1.4,0.07 7.48,0.18 14.34,-2.55 19.49,-7.15z"/>
  <path class="fil1" d="M6.65 46.18c4.44,5.1 10.71,8.59 17.82,9.46 0.22,-0.65 0.45,-1.29 0.68,-1.93 0.74,-2 1.57,-3.95 2.39,-5.92 0.2,-0.48 0.92,-2.14 0.99,-2.75 -0.58,-0.91 -3.48,-1.19 -4.49,-2.02 -1.4,-1.17 -1.93,-3.5 -1.19,-5.17 0.12,-0.26 0.28,-0.51 0.49,-0.71 0.69,-0.69 1.45,-0.74 2.29,-1.05 0.42,-0.15 0.6,-0.29 0.7,-0.74 0.25,-1.06 0.76,-1.93 1.81,-2.34 0.39,-0.16 0.76,-0.19 1.13,-0.32 0.18,-0.06 0.28,-0.18 0.38,-0.34 0.52,-0.86 0.32,-2.26 0.38,-3.25l0.12 -2.08 1.6 0.49c0.26,0.07 0.53,0.16 0.79,0.26l0.05 -0.33c1.76,-3.68 4.74,-5.24 7.68,-7.41 0,0 0.4,-8.37 -2.19,-8.5 -2.59,-0.14 -5.21,2.19 -6.72,1.78 -1.51,-0.41 -4.12,-2.61 -8.37,-2.06 -4.25,0.55 -6.03,4.67 -8.23,5.35 -2.19,0.69 -3.19,8.29 -5.21,9.6 0.3,1.51 8.94,5.16 10.61,3.83 1.67,-1.34 -2.74,-11.43 -1.83,-12.33 0.2,2.47 5.78,10.73 2.88,13.16 -1.54,1.3 -4.02,0.68 -5.88,-0.1 -0.76,2.21 -5.31,8.75 -8.68,15.42z"/>
 </g>
</svg>
